<?xml version="1.0" standalone="no"?>
<!DOCTYPE svg PUBLIC "-//W3C//DTD SVG 20010904//EN"
 "http://www.w3.org/TR/2001/REC-SVG-20010904/DTD/svg10.dtd">
<svg version="1.0" xmlns="http://www.w3.org/2000/svg"
 width="128.000000pt" height="128.000000pt" viewBox="0 0 128.000000 128.000000"
 preserveAspectRatio="xMidYMid meet">
<metadata>
Created by potrace 1.14, written by Peter Selinger 2001-2017
</metadata>
<g transform="translate(0.000000,128.000000) scale(0.100000,-0.100000)"
fill="#000000" stroke="none">
<path d="M621 1221 c-18 -33 -16 -80 3 -99 16 -16 18 -16 32 2 19 27 18 69 -5
97 l-18 23 -12 -23z"/>
<path d="M500 1114 c-16 -42 -12 -71 17 -104 l26 -32 13 24 c20 34 17 82 -7
112 -26 33 -37 33 -49 0z"/>
<path d="M759 1127 c-37 -29 -41 -137 -4 -137 35 0 59 75 41 128 -8 25 -14 27
-37 9z"/>
<path d="M346 1112 c-10 -9 6 -57 27 -79 46 -51 80 -5 37 49 -19 25 -54 41
-64 30z"/>
<path d="M897 1095 c-31 -29 -38 -85 -12 -85 27 0 65 47 65 80 0 37 -16 38
-53 5z"/>
<path d="M626 1015 c-29 -31 -35 -59 -23 -97 10 -31 15 -33 39 -14 23 17 39
62 33 93 -7 43 -21 48 -49 18z"/>
<path d="M282 968 c7 -18 17 -38 23 -44 32 -33 95 -46 95 -19 0 46 -53 95
-104 95 -24 0 -24 -1 -14 -32z"/>
<path d="M931 969 c-40 -39 -42 -79 -5 -79 32 0 94 59 94 89 0 34 -51 28 -89
-10z"/>
<path d="M130 961 c0 -5 11 -23 25 -39 19 -22 33 -29 55 -28 42 3 44 9 15 45
-20 24 -35 31 -61 31 -19 0 -34 -4 -34 -9z"/>
<path d="M452 957 c-21 -26 24 -84 69 -89 20 -3 24 1 21 21 -3 30 -17 48 -53
66 -21 11 -29 12 -37 2z"/>
<path d="M1076 944 c-31 -32 -32 -41 -7 -49 26 -8 66 9 85 37 23 32 20 38 -18
38 -23 0 -42 -8 -60 -26z"/>
<path d="M753 930 c-30 -18 -53 -63 -39 -77 12 -12 84 18 100 42 36 54 2 74
-61 35z"/>
<path d="M260 843 c-41 -12 -41 -12 -30 -33 15 -28 65 -57 92 -54 13 1 29 3
36 3 6 1 12 8 12 16 0 31 -75 78 -110 68z"/>
<path d="M1003 841 c-51 -14 -96 -79 -55 -82 62 -6 114 20 120 58 3 23 -26 33
-65 24z"/>
<path d="M420 812 c0 -26 42 -62 84 -72 39 -9 46 2 26 41 -23 41 -110 66 -110
31z"/>
<path d="M611 808 c-13 -35 -2 -84 26 -110 24 -22 25 -23 39 -4 18 26 10 84
-17 113 -28 29 -37 29 -48 1z"/>
<path d="M803 814 c-28 -14 -59 -65 -47 -77 3 -3 21 -1 41 3 40 9 67 33 78 68
5 18 3 22 -17 22 -13 0 -37 -8 -55 -16z"/>
<path d="M63 814 c-20 -9 -15 -32 9 -45 33 -18 69 -20 90 -5 17 12 17 13 -1
30 -19 18 -77 29 -98 20z"/>
<path d="M1147 800 c-30 -24 -26 -37 11 -45 30 -5 79 13 86 32 8 20 5 23 -35
29 -26 4 -41 0 -62 -16z"/>
<path d="M177 703 c-16 -19 -16 -21 3 -38 23 -21 85 -24 119 -5 l23 12 -20 20
c-29 30 -102 36 -125 11z"/>
<path d="M1008 703 c-35 -22 -35 -29 1 -47 32 -17 74 -13 110 11 21 13 22 17
9 30 -24 23 -89 26 -120 6z"/>
<path d="M384 689 c-3 -6 7 -25 24 -41 57 -58 180 -47 125 10 -10 11 -28 24
-40 31 -28 14 -100 14 -109 0z"/>
<path d="M789 677 c-19 -13 -35 -33 -37 -46 -4 -23 -2 -23 54 -19 49 4 61 10
87 38 23 25 26 34 16 41 -26 16 -85 9 -120 -14z"/>
<path d="M105 620 c-12 -4 -27 -15 -34 -24 -11 -13 -10 -17 14 -26 34 -13 48
-13 80 2 57 26 1 71 -60 48z"/>
<path d="M1125 616 l-29 -12 22 -20 c26 -24 72 -29 98 -10 17 13 17 16 4 30
-21 21 -60 26 -95 12z"/>
<path d="M610 599 c-9 -16 -8 -26 5 -45 18 -28 16 -27 49 -14 28 10 35 47 14
68 -19 19 -56 14 -68 -9z"/>
<path d="M309 603 c-35 -5 -67 -39 -52 -54 6 -6 31 -13 55 -16 37 -4 49 -1 73
20 l29 24 -31 17 c-18 9 -36 15 -40 15 -4 -1 -20 -4 -34 -6z"/>
<path d="M924 600 c-49 -20 -32 -57 31 -67 35 -6 95 12 95 28 0 28 -88 55
-126 39z"/>
<path d="M470 554 c0 -4 20 -26 45 -50 58 -56 68 -98 63 -239 -5 -116 -21
-173 -59 -205 -39 -35 13 -35 92 -2 41 18 43 17 82 -2 33 -16 107 -31 107 -21
0 2 -13 17 -30 35 -40 43 -52 94 -52 225 -1 130 12 166 73 219 34 28 39 37 26
42 -21 8 -93 -27 -134 -65 l-32 -29 -38 30 c-63 50 -143 84 -143 62z"/>
<path d="M361 471 c-17 -16 -31 -33 -31 -39 0 -34 94 -8 106 30 13 42 -34 47
-75 9z"/>
<path d="M861 491 c-33 -21 49 -87 91 -72 17 6 16 8 -2 39 -11 17 -26 32 -34
32 -8 0 -20 2 -28 5 -7 3 -19 1 -27 -4z"/>
</g>
</svg>
